<svg width="32" height="32" viewBox="0 0 32 32" fill="none" xmlns="http://www.w3.org/2000/svg">
<path d="M24.1466 19.6997H23.52V11.8197C23.52 8.70634 21.1066 6.09967 17.8533 5.36634C17.86 5.29301 17.8733 5.22634 17.8733 5.15301C17.8733 4.14634 17.0333 3.33301 15.9933 3.33301C14.9533 3.33301 14.1133 4.14634 14.1133 5.15301C14.1133 5.22634 14.1266 5.29301 14.1333 5.36634C10.8733 6.09967 8.46665 8.70634 8.46665 11.8197V19.6997H7.83998C6.45331 19.6997 5.33331 20.7863 5.33331 22.1263V23.3397H26.6666V22.1263C26.6666 20.7863 25.54 19.6997 24.16 19.6997H24.1466Z" stroke="white" stroke-miterlimit="10"/>
<path d="M13.4133 25.333C13.3533 25.5463 13.32 25.7663 13.32 25.9997C13.32 27.473 14.5133 28.6663 15.9866 28.6663C17.46 28.6663 18.6533 27.473 18.6533 25.9997C18.6533 25.7663 18.62 25.5463 18.56 25.333H13.4066H13.4133Z" stroke="white" stroke-miterlimit="10"/>
</svg>
