<svg width="48" height="48" viewBox="0 0 48 48" fill="none" xmlns="http://www.w3.org/2000/svg">
<path d="M36.22 29.55H35.28V17.73C35.28 13.06 31.66 9.15 26.78 8.05C26.79 7.94 26.81 7.84 26.81 7.73C26.81 6.22 25.55 5 23.99 5C22.43 5 21.17 6.22 21.17 7.73C21.17 7.84 21.19 7.94 21.2 8.05C16.31 9.15 12.7 13.06 12.7 17.73V29.55H11.76C9.68 29.55 8 31.18 8 33.19V35.01H40V33.19C40 31.18 38.31 29.55 36.24 29.55H36.22Z" stroke="#484848" stroke-miterlimit="10"/>
<path d="M20.12 38C20.03 38.32 19.98 38.65 19.98 39C19.98 41.21 21.77 43 23.98 43C26.19 43 27.98 41.21 27.98 39C27.98 38.65 27.93 38.32 27.84 38H20.11H20.12Z" stroke="#484848" stroke-miterlimit="10"/>
</svg>
