<svg width="24" height="24" viewBox="0 0 24 24" fill="none" xmlns="http://www.w3.org/2000/svg">
<path d="M4 10.1797H10" stroke="#D9D9D9" stroke-miterlimit="10"/>
<path d="M4 8.67969H10" stroke="#D9D9D9" stroke-miterlimit="10"/>
<path d="M4 7.17969H10" stroke="#D9D9D9" stroke-miterlimit="10"/>
<path d="M19.5 10.1797H13.5V11.6797H19.5V10.1797Z" stroke="#D9D9D9" stroke-miterlimit="10"/>
<path d="M2 11.6797H22H2Z" stroke="#D9D9D9" stroke-miterlimit="10"/>
<path d="M4 11.6797V21.6797V11.6797Z" stroke="#D9D9D9" stroke-miterlimit="10"/>
<path d="M20 11.6797V21.6797V11.6797Z" stroke="#D9D9D9" stroke-miterlimit="10"/>
<path d="M17.5 10.1797L20 6.67969L17 2.67969L15.5 3.67969" stroke="#D9D9D9" stroke-miterlimit="10"/>
<path d="M14.5 3.67969H15.5C16.05 3.67969 16.5 4.12969 16.5 4.67969V6.67969H13.5V4.67969C13.5 4.12969 13.95 3.67969 14.5 3.67969Z" stroke="#D9D9D9" stroke-miterlimit="10"/>
<path d="M11.5 11.6797H20V15.6797H12.5C11.95 15.6797 11.5 15.2297 11.5 14.6797V11.6797Z" stroke="#D9D9D9" stroke-miterlimit="10"/>
</svg>
